<svg xmlns="http://www.w3.org/2000/svg" width="29.328" height="29.327" viewBox="0 0 29.328 29.327"><defs><style>.a{fill:#141e40;}</style></defs><g transform="translate(0 0)"><path class="a" d="M28.55,10.075,19.263.788a2.668,2.668,0,0,0-3.765,0L.777,15.509a2.668,2.668,0,0,0,0,3.765l1.145,1.145h0l7.7,7.7H8.554a.611.611,0,1,0,0,1.222h12.22a.611.611,0,0,0,0-1.222h-6.5L28.55,13.84A2.665,2.665,0,0,0,28.55,10.075Zm-.864,2.9L12.965,27.7a1.43,1.43,0,0,1-1.016.419h0a1.429,1.429,0,0,1-1.016-.419L3.219,19.987,17.356,5.85a.611.611,0,1,0-.864-.864L2.355,19.123l-.714-.714a1.446,1.446,0,0,1,0-2.037l14.72-14.72a1.447,1.447,0,0,1,2.037,0L21.7,4.958,7.567,19.095a.611.611,0,1,0,.864.864L22.568,5.822l5.118,5.117A1.442,1.442,0,0,1,27.686,12.976Z" transform="translate(0 -0.011)"/><path class="a" d="M166.509,305.12a.611.611,0,0,0-.864,0l-4.808,4.808a.611.611,0,0,0,.864.864l4.808-4.808A.611.611,0,0,0,166.509,305.12Z" transform="translate(-151.455 -287.474)"/><path class="a" d="M192.977,384.8l-1.972,1.972a.611.611,0,1,0,.864.864l1.972-1.972a.611.611,0,0,0-.864-.864Z" transform="translate(-179.895 -362.586)"/><path class="a" d="M252.843,353.121l-.259.259a.611.611,0,1,0,.864.864l.259-.259a.611.611,0,0,0-.864-.864Z" transform="translate(-237.946 -332.725)"/><path class="a" d="M347.245,160.848a.611.611,0,0,0-.864,0l-2.592,2.592a.611.611,0,0,0,0,.864l1.728,1.728a.611.611,0,0,0,.864,0l2.592-2.592a.611.611,0,0,0,0-.864Zm-1.3,3.888-.864-.864,1.728-1.728.864.864Z" transform="translate(-323.927 -151.466)"/><path class="a" d="M310.284,55.808a.609.609,0,0,0,.432-.179l.259-.259a.611.611,0,1,0-.864-.864l-.259.259a.611.611,0,0,0,.432,1.043Z" transform="translate(-291.934 -51.215)"/><path class="a" d="M100,355.112l-.259.259a.611.611,0,0,0,.864.864l.259-.259a.611.611,0,0,0-.864-.864Z" transform="translate(-93.863 -334.602)"/></g></svg>