<svg xmlns="http://www.w3.org/2000/svg" width="29.182" height="20.711" viewBox="0 0 29.182 20.711"><defs><style>.a{fill:#141e40;}</style></defs><g transform="translate(0 0)"><path class="a" d="M28.859,24.28a1.427,1.427,0,0,0-1.111-.528H5.43l-.451-2.188a1.435,1.435,0,0,0-.833-1.025L1,19.173a.716.716,0,0,0-.571,1.314l3.145,1.365L7.043,38.682a1.438,1.438,0,0,0,1.4,1.144H25.611a.716.716,0,1,0,0-1.433H8.446l-.422-2.047h17.72a1.438,1.438,0,0,0,1.4-1.144l2-9.728A1.427,1.427,0,0,0,28.859,24.28ZM25.744,34.913H7.729l-2-9.728H27.748Z" transform="translate(0 -19.114)"/></g></svg>