<svg xmlns="http://www.w3.org/2000/svg" width="28.031" height="21.024" viewBox="0 0 28.031 21.024"><defs><style>.a{fill:#141e40;}</style></defs><path class="a" d="M25.4,59.882H2.628A2.631,2.631,0,0,0,0,62.51V78.278a2.631,2.631,0,0,0,2.628,2.628H25.4a2.631,2.631,0,0,0,2.628-2.628V62.51A2.631,2.631,0,0,0,25.4,59.882Zm0,1.752a.871.871,0,0,1,.336.068L14.016,71.863,2.292,61.7a.872.872,0,0,1,.336-.068Zm0,17.52H2.628a.877.877,0,0,1-.876-.876V63.553l11.69,10.131a.877.877,0,0,0,1.148,0l11.69-10.131V78.278A.877.877,0,0,1,25.4,79.154Z" transform="translate(0 -59.882)"/></svg>