<svg xmlns="http://www.w3.org/2000/svg" width="26.728" height="27.846" viewBox="0 0 26.728 27.846"><defs><style>.a{fill:#141e40;}</style></defs><g transform="translate(0.734)"><path class="a" d="M25.958,10.316v-4.3a3.063,3.063,0,0,0-3.06-3.06h-.806V2.478a2.491,2.491,0,0,0-4.982,0v.483h-9V2.478a2.491,2.491,0,0,0-4.982,0v.483H2.325A3.063,3.063,0,0,0-.734,6.021V24.787a3.063,3.063,0,0,0,3.059,3.06H22.9a3.063,3.063,0,0,0,3.06-3.06V10.758A.69.69,0,0,0,25.958,10.316ZM19.6,1.38a1.1,1.1,0,0,1,1.1,1.1V3.945a1.1,1.1,0,0,1-2.2,0V2.478A1.1,1.1,0,0,1,19.6,1.38ZM4.524,2.478a1.1,1.1,0,0,1,2.2,0V3.945a1.1,1.1,0,0,1-2.2,0Zm-2.2,1.876h.84a2.49,2.49,0,0,0,4.913,0h9.067a2.49,2.49,0,0,0,4.913,0h.84a1.669,1.669,0,0,1,1.667,1.667V9.84H.659V6.021A1.669,1.669,0,0,1,2.325,4.354ZM22.9,26.453H2.325A1.669,1.669,0,0,1,.659,24.787V11.233H24.565V24.787A1.669,1.669,0,0,1,22.9,26.453Zm0,0" transform="translate(0 0)"/><path class="a" d="M160.672,262.377l-2.5-.357-1.117-2.219a.7.7,0,0,0-1.244,0l-1.118,2.219-2.5.357a.7.7,0,0,0-.383,1.193l1.8,1.724-.425,2.43a.7.7,0,0,0,1.005.739l2.243-1.156,2.243,1.156a.7.7,0,0,0,1-.739l-.425-2.43,1.8-1.724a.7.7,0,0,0-.383-1.193Zm-2.652,2.166a.7.7,0,0,0-.2.624l.248,1.415-1.315-.678a.7.7,0,0,0-.638,0l-1.315.678.247-1.415a.7.7,0,0,0-.2-.624l-1.036-.989,1.444-.206a.7.7,0,0,0,.524-.376l.659-1.309.659,1.309a.7.7,0,0,0,.524.376l1.444.206Zm0,0" transform="translate(-143.817 -244.934)"/></g></svg>