<svg xmlns="http://www.w3.org/2000/svg" width="28.508" height="24.891" viewBox="0 0 28.508 24.891"><defs><style>.a{fill:#141e40;}</style></defs><g transform="translate(0)"><path class="a" d="M254,263.75h-3.874a1.924,1.924,0,0,0-1.922,1.922v2.971a1.924,1.924,0,0,0,1.922,1.922H254a1.924,1.924,0,0,0,1.922-1.922v-2.971A1.924,1.924,0,0,0,254,263.75Zm.524,4.893a.526.526,0,0,1-.524.524h-3.874a.526.526,0,0,1-.524-.524v-2.971a.526.526,0,0,1,.524-.524H254a.526.526,0,0,1,.524.524Z" transform="translate(-233.742 -250.195)"/><path class="a" d="M28.508,39.205a.649.649,0,0,0-.093-.344l-4.241-7.456a.7.7,0,0,0-.606-.355H4.934a.691.691,0,0,0-.606.355L.093,38.862A.707.707,0,0,0,0,39.205a4.089,4.089,0,0,0,2.447,3.74v12.3a.7.7,0,0,0,.7.7H25.357a.7.7,0,0,0,.7-.7V43.032a.308.308,0,0,0-.006-.076A4.1,4.1,0,0,0,28.508,39.205ZM5.342,32.454H23.161l3.315,5.831H2.033Zm14.947,7.223a2.687,2.687,0,0,1-5.289,0Zm-6.775,0a2.69,2.69,0,0,1-5.3,0Zm-12.07,0h5.3a2.69,2.69,0,0,1-5.3,0Zm10.3,14.866H7.724V47a1,1,0,0,1,1-1h2.033a1,1,0,0,1,1,1v7.544Zm12.914,0H13.142V47a2.4,2.4,0,0,0-2.394-2.394H8.714A2.4,2.4,0,0,0,6.32,47v7.549H3.845V43.289c.082.006.163.006.245.006a4.084,4.084,0,0,0,3.39-1.806,4.085,4.085,0,0,0,6.78,0,4.074,4.074,0,0,0,6.769,0,4.084,4.084,0,0,0,3.39,1.806c.082,0,.157-.006.239-.006V54.543ZM24.419,41.9a2.685,2.685,0,0,1-2.645-2.214h5.3A2.7,2.7,0,0,1,24.419,41.9Z" transform="translate(0 -31.05)"/></g></svg>