<svg xmlns="http://www.w3.org/2000/svg" width="24.591" height="21.921" viewBox="0 0 24.591 21.921"><defs><style>.a{fill:#fff;}</style></defs><g transform="translate(0 0)"><g transform="translate(0 0)"><path class="a" d="M24.329,36.455,12.672,27.921a.639.639,0,0,0-.755,0L.261,36.455a.639.639,0,0,0,.755,1.031l11.279-8.258,11.279,8.258a.639.639,0,0,0,.755-1.031Z" transform="translate(0.001 -27.798)"/></g></g><g transform="translate(2.711 9.834)"><g transform="translate(0 0)"><path class="a" d="M74.981,232.543a.639.639,0,0,0-.639.639v10.17H69.231V237.8a3.195,3.195,0,0,0-6.39,0v5.551H57.73v-10.17a.639.639,0,0,0-1.278,0v10.809a.639.639,0,0,0,.639.639H63.48a.639.639,0,0,0,.636-.589.481.481,0,0,0,0-.05V237.8a1.917,1.917,0,1,1,3.834,0v6.19a.468.468,0,0,0,0,.049.639.639,0,0,0,.636.59h6.389a.639.639,0,0,0,.639-.639V233.182A.639.639,0,0,0,74.981,232.543Z" transform="translate(-56.452 -232.543)"/></g></g></svg>