<svg xmlns="http://www.w3.org/2000/svg" width="25.396" height="25.268" viewBox="0 0 25.396 25.268"><defs><style>.a{fill:#141e40;}</style></defs><path class="a" d="M24.4,19.6C22.115,17.624,20,14.838,20,7.884a7.3,7.3,0,0,0-14.609,0c0,6.961-2.112,9.743-4.4,11.716a2.892,2.892,0,0,0-1,2.18.831.831,0,0,0,.831.831H8.716a4.068,4.068,0,0,0,7.964,0h7.885a.831.831,0,0,0,.831-.831A2.876,2.876,0,0,0,24.4,19.6ZM12.7,24.186a2.41,2.41,0,0,1-2.258-1.576h4.516A2.41,2.41,0,0,1,12.7,24.186ZM1.989,20.949a1.224,1.224,0,0,1,.1-.094c3.483-3.007,4.97-6.887,4.97-12.971a5.643,5.643,0,0,1,11.286,0c0,6.079,1.486,9.958,4.972,12.972a1.234,1.234,0,0,1,.1.093Z" transform="translate(0 -0.58)"/></svg>