<svg xmlns="http://www.w3.org/2000/svg" width="10.676" height="10.676" viewBox="0 0 10.676 10.676"><defs><style>.a{fill:#2383ff;}</style></defs><circle class="a" cx="0.521" cy="0.521" r="0.521" transform="translate(4.817 7.371)"/><path class="a" d="M5.338,0a5.338,5.338,0,1,0,5.338,5.338A5.335,5.335,0,0,0,5.338,0Zm0,9.842a4.5,4.5,0,1,1,4.5-4.5A4.5,4.5,0,0,1,5.338,9.842Z"/><path class="a" d="M177.668,128.5A1.67,1.67,0,0,0,176,130.168a.417.417,0,0,0,.834,0,.834.834,0,1,1,.834.834.417.417,0,0,0-.417.417v1.043a.417.417,0,1,0,.834,0v-.678a1.668,1.668,0,0,0-.417-3.283Z" transform="translate(-172.33 -125.821)"/></svg>