<svg xmlns="http://www.w3.org/2000/svg" width="28.422" height="28.422" viewBox="0 0 28.422 28.422"><defs><style>.a{fill:#141e40;}</style></defs><path class="a" d="M26.967,11.229l-1.995-.338a11.264,11.264,0,0,0-.8-1.936L25.347,7.31a1.75,1.75,0,0,0-.19-2.262L23.387,3.278a1.743,1.743,0,0,0-1.241-.517,1.725,1.725,0,0,0-1.015.327L19.48,4.264a11.147,11.147,0,0,0-2.007-.825l-.332-1.971A1.754,1.754,0,0,0,15.407,0h-2.5a1.754,1.754,0,0,0-1.734,1.467L10.83,3.486A10.987,10.987,0,0,0,8.9,4.3L7.267,3.124a1.754,1.754,0,0,0-2.262.19L3.23,5.083a1.758,1.758,0,0,0-.19,2.262L4.227,9.014a11,11,0,0,0-.79,1.942l-1.971.332A1.754,1.754,0,0,0,0,13.022v2.5a1.754,1.754,0,0,0,1.467,1.734l2.019.344a10.987,10.987,0,0,0,.813,1.93l-1.17,1.627a1.75,1.75,0,0,0,.19,2.262l1.769,1.769a1.743,1.743,0,0,0,1.241.517,1.725,1.725,0,0,0,1.015-.327L9.013,24.19a11.232,11.232,0,0,0,1.876.772l.332,1.995a1.754,1.754,0,0,0,1.734,1.467h2.506a1.754,1.754,0,0,0,1.734-1.467l.338-1.995a11.264,11.264,0,0,0,1.936-.8l1.645,1.176a1.743,1.743,0,0,0,1.021.327h0a1.743,1.743,0,0,0,1.241-.517l1.769-1.769a1.758,1.758,0,0,0,.19-2.262l-1.176-1.651a11.184,11.184,0,0,0,.8-1.936l1.995-.332a1.754,1.754,0,0,0,1.467-1.734v-2.5A1.733,1.733,0,0,0,26.967,11.229Zm-.137,4.233a.154.154,0,0,1-.131.154l-2.494.416a.8.8,0,0,0-.641.588,9.5,9.5,0,0,1-1.033,2.488.8.8,0,0,0,.036.873l1.467,2.066a.162.162,0,0,1-.018.2l-1.769,1.769a.151.151,0,0,1-.113.047.146.146,0,0,1-.089-.03l-2.06-1.467a.8.8,0,0,0-.873-.036,9.5,9.5,0,0,1-2.488,1.033.788.788,0,0,0-.588.641L15.615,26.7a.154.154,0,0,1-.154.131h-2.5a.154.154,0,0,1-.154-.131l-.416-2.494a.8.8,0,0,0-.588-.641,9.87,9.87,0,0,1-2.434-1,.822.822,0,0,0-.4-.107.782.782,0,0,0-.463.148L6.424,24.089a.177.177,0,0,1-.089.03.159.159,0,0,1-.113-.047L4.453,22.3a.161.161,0,0,1-.018-.2L5.9,20.051a.813.813,0,0,0,.036-.879,9.415,9.415,0,0,1-1.045-2.482.813.813,0,0,0-.641-.588l-2.512-.427a.154.154,0,0,1-.131-.154v-2.5a.154.154,0,0,1,.131-.154l2.476-.416a.8.8,0,0,0,.647-.594A9.5,9.5,0,0,1,5.872,9.364.793.793,0,0,0,5.83,8.5L4.352,6.419a.162.162,0,0,1,.018-.2L6.139,4.448A.151.151,0,0,1,6.252,4.4a.146.146,0,0,1,.089.03L8.389,5.891a.813.813,0,0,0,.879.036A9.415,9.415,0,0,1,11.75,4.881a.813.813,0,0,0,.588-.641l.427-2.512A.154.154,0,0,1,12.92,1.6h2.5a.154.154,0,0,1,.154.131L15.989,4.2a.8.8,0,0,0,.594.647A9.637,9.637,0,0,1,19.13,5.9.8.8,0,0,0,20,5.861l2.048-1.472a.177.177,0,0,1,.089-.03.159.159,0,0,1,.113.047l1.769,1.769a.161.161,0,0,1,.018.2l-1.467,2.06a.8.8,0,0,0-.036.873A9.5,9.5,0,0,1,23.571,11.8a.788.788,0,0,0,.641.588l2.494.422a.154.154,0,0,1,.131.154v2.5Z" transform="translate(0 -0.001)"/><path class="a" d="M142.233,136a6.133,6.133,0,1,0,6.133,6.133A6.137,6.137,0,0,0,142.233,136Zm0,10.663a4.53,4.53,0,1,1,4.53-4.53A4.533,4.533,0,0,1,142.233,146.665Z" transform="translate(-128.019 -127.926)"/></svg>