<svg xmlns="http://www.w3.org/2000/svg" width="25.213" height="21.64" viewBox="0 0 25.213 21.64"><defs><style>.a{fill:#141e40;}</style></defs><path class="a" d="M23.8,43.961h-.6v-3.6a2.671,2.671,0,0,0-2.668-2.668H19.98l.005-1.339a1.8,1.8,0,0,0-1.8-1.8h-16A2.188,2.188,0,0,0,0,36.706V54.39a1.8,1.8,0,0,0,1.8,1.8H20.538a2.671,2.671,0,0,0,2.668-2.668V49.912h.6a1.408,1.408,0,0,0,1.406-1.406V45.367A1.416,1.416,0,0,0,23.8,43.961ZM2.187,35.791h16a.558.558,0,0,1,.558.553l-.005,1.344H2.187a.949.949,0,0,1,0-1.9ZM21.96,53.517a1.43,1.43,0,0,1-1.427,1.427H1.794a.559.559,0,0,1-.558-.558V38.713a2.178,2.178,0,0,0,.951.217H20.533a1.43,1.43,0,0,1,1.427,1.427v3.6H17.726a1.408,1.408,0,0,0-1.406,1.406v3.139a1.408,1.408,0,0,0,1.406,1.406H21.96v3.6Zm2.006-5.011a.163.163,0,0,1-.165.165H17.731a.163.163,0,0,1-.165-.165V45.367a.167.167,0,0,1,.165-.165H23.8a.167.167,0,0,1,.165.165v3.139Z" transform="translate(0 -34.55)"/></svg>